<?xml version="1.0" encoding="utf-8"?>
<!-- Generator: Adobe Illustrator 29.8.2, SVG Export Plug-In . SVG Version: 9.03 Build 0)  -->
<svg version="1.0" id="Camada_1" xmlns="http://www.w3.org/2000/svg" xmlns:xlink="http://www.w3.org/1999/xlink" x="0px" y="0px"
	 viewBox="0 0 1080 901" style="enable-background:new 0 0 1080 901;" xml:space="preserve">
<style type="text/css">
	.st0{fill:#FFFFFF;}
	.st1{fill:#0175A6;}
</style>
<path class="st0" d="M975.2,305.6L215.5,15.3C167.1-3.2,114.8,3.1,72.2,32.5C29.5,61.9,5,108.4,5,160.3v580.5
	c0,51.8,24.5,98.4,67.2,127.8c26.5,18.3,56.8,27.6,87.5,27.6c18.7,0,37.6-3.5,55.9-10.5l759.8-290.3c61.5-23.5,99.8-79,99.8-144.9
	S1036.8,329.1,975.2,305.6z"/>
<path class="st1" d="M456.3,345.1c-3-2.1-6.4-3.2-10.3-3.2c-4.1,0-7.7,1.1-10.9,3.2c-3.2,2.1-5.5,5-7.1,8.7l-87.8,205.4h43.2
	l62.1-145l61.9,145h42.9l-87.2-205.4C461.6,350.1,459.3,347.2,456.3,345.1L456.3,345.1z"/>
<path class="st1" d="M615,489.5l-63.3-147.4h-42l87.8,205.1c1.5,3.5,3.9,6.3,7.1,8.4c3.2,2.1,6.8,3.2,10.9,3.2s7.3-1.1,10.3-3.2
	c3-2.1,5.2-4.9,6.8-8.4l87.2-205.1h-42L615,489.5z"/>
<rect x="746.6" y="343.4" class="st1" width="38.5" height="214.4"/>
<path class="st1" d="M282.6,477.2c11.1-6,19.9-14.3,26.4-24.9c6.5-10.6,9.7-22.5,9.7-35.6s-3.2-25.3-9.7-36.6
	c-6.5-11.3-15.3-20.2-26.5-26.8s-23.4-9.9-36.5-9.9h-87.2c-5.4,0-10.1,2-14,5.9c-4,4-5.9,8.6-5.9,14v194.4h38.5V381.9H246
	c6.2,0,11.9,1.6,17.1,4.8s9.4,7.4,12.5,12.8s4.6,11,4.6,17.2s-1.5,11.8-4.6,16.9c-3.1,5.1-7.2,9.2-12.3,12.2
	c-5.1,3-10.9,4.5-17.2,4.5h-45.4l75,107.5h44.6l-52.6-74.5C272.8,481.7,277.9,479.8,282.6,477.2L282.6,477.2z"/>
</svg>
